<svg xmlns="http://www.w3.org/2000/svg" height="48" viewBox="0 -960 960 960" width="48"><path d="M433-220.261 287.261-364.435l49.304-49.869 96.435 96 185.87-185.87 47.739 50.304L433-220.261ZM184.348-61.043q-33.501 0-58.338-25.232-24.836-25.233-24.836-57.943v-611.869q0-33.734 24.836-58.737 24.837-25.002 58.338-25.002h54.653v-59.696h78.565v59.696h324.868v-59.696h78.565v59.696h54.653q33.734 0 58.737 25.002 25.002 25.003 25.002 58.737v611.869q0 32.71-25.002 57.942-25.003 25.233-58.737 25.233H184.348Zm0-83.175h591.304v-428.999H184.348v428.999Zm0-492.955h591.304v-118.914H184.348v118.914Zm0 0v-118.914 118.914Z"/></svg>